<svg width="36" height="36" viewBox="0 0 36 36" fill="none" xmlns="http://www.w3.org/2000/svg">
<rect width="36" height="36" rx="18" fill="#D22630"/>
<path fill-rule="evenodd" clip-rule="evenodd" d="M19.8787 13.4237C19.9584 13.3479 20.0602 13.3047 20.16 13.3047H22.752C23.0179 13.3047 23.232 13.0896 23.232 12.8247V9.36867C23.232 9.10371 23.0179 8.88867 22.752 8.88867H20.16C18.9063 8.88867 17.6698 9.39747 16.7655 10.2874C15.8593 11.1994 15.3601 12.4071 15.3601 13.6887V15.8016H13.2481C12.9821 15.8016 12.7681 16.0157 12.7681 16.2816V19.7367C12.7681 20.0026 12.9821 20.2167 13.2481 20.2167H15.3601V26.6487C15.3601 26.9146 15.5751 27.1287 15.8401 27.1287H19.296C19.561 27.1287 19.776 26.9146 19.776 26.6487V20.2167H22.752C23.0179 20.2167 23.232 20.0026 23.232 19.7367V16.2816C23.232 16.0157 23.0179 15.8016 22.752 15.8016H19.776V13.6887C19.776 13.585 19.8163 13.4871 19.8787 13.4237Z" fill="white" fill-opacity="0.87"/>
</svg>
