<svg width="36" height="36" viewBox="0 0 36 36" fill="none" xmlns="http://www.w3.org/2000/svg">
<rect width="36" height="36" rx="18" fill="#D22630"/>
<path fill-rule="evenodd" clip-rule="evenodd" d="M18 9C15.5556 9 15.2496 9.0102 14.2896 9.054C13.3314 9.0978 12.6768 9.2502 12.1044 9.4728C11.5044 9.6984 10.9602 10.0524 10.5102 10.5108C10.0525 10.9603 9.69831 11.5041 9.4722 12.1044C9.2508 12.6768 9.0978 13.332 9.054 14.2902C9.0108 15.2496 9 15.555 9 18C9 20.445 9.0102 20.7504 9.054 21.7104C9.0978 22.6686 9.2502 23.3232 9.4728 23.8956C9.6984 24.4956 10.0524 25.0398 10.5108 25.4898C10.9603 25.9475 11.5041 26.3017 12.1044 26.5278C12.6768 26.7498 13.3314 26.9022 14.2896 26.946C15.2496 26.9898 15.5556 27 18 27C20.4444 27 20.7504 26.9898 21.7104 26.946C22.6686 26.9022 23.3232 26.7498 23.8956 26.5272C24.4956 26.3016 25.0398 25.9476 25.4898 25.4892C25.9475 25.0397 26.3017 24.4959 26.5278 23.8956C26.7498 23.3232 26.9022 22.6686 26.946 21.7104C26.9898 20.7504 27 20.4444 27 18C27 15.5556 26.9898 15.2496 26.946 14.2896C26.9022 13.3314 26.7498 12.6768 26.5272 12.1044C26.3012 11.5038 25.947 10.9598 25.4892 10.5102C25.0397 10.0525 24.4959 9.69831 23.8956 9.4722C23.3232 9.2508 22.668 9.0978 21.7098 9.054C20.7504 9.0108 20.445 9 18 9ZM18 10.6218C20.403 10.6218 20.688 10.6308 21.6372 10.674C22.5144 10.7142 22.9908 10.86 23.3082 10.9842C23.7282 11.1468 24.0282 11.3424 24.3432 11.6568C24.6582 11.9718 24.8532 12.2718 25.0158 12.6918C25.1394 13.0092 25.2858 13.4856 25.326 14.3628C25.3692 15.312 25.3782 15.597 25.3782 18C25.3782 20.403 25.3692 20.688 25.326 21.6372C25.2858 22.5144 25.14 22.9908 25.0158 23.3082C24.8718 23.6991 24.6419 24.0528 24.3432 24.3432C24.0528 24.642 23.6992 24.8718 23.3082 25.0158C22.9908 25.1394 22.5144 25.2858 21.6372 25.326C20.688 25.3692 20.4036 25.3782 18 25.3782C15.5964 25.3782 15.312 25.3692 14.3628 25.326C13.4856 25.2858 13.0092 25.14 12.6918 25.0158C12.3009 24.8718 11.9472 24.6419 11.6568 24.3432C11.3581 24.0528 11.1283 23.6991 10.9842 23.3082C10.8606 22.9908 10.7142 22.5144 10.674 21.6372C10.6308 20.688 10.6218 20.403 10.6218 18C10.6218 15.597 10.6308 15.312 10.674 14.3628C10.7142 13.4856 10.86 13.0092 10.9842 12.6918C11.1468 12.2718 11.3424 11.9718 11.6568 11.6568C11.9472 11.358 12.3008 11.1282 12.6918 10.9842C13.0092 10.8606 13.4856 10.7142 14.3628 10.674C15.312 10.6308 15.597 10.6218 18 10.6218V10.6218Z" fill="white" fill-opacity="0.87"/>
<path fill-rule="evenodd" clip-rule="evenodd" d="M18 21.0028C17.6057 21.0028 17.2152 20.9251 16.8508 20.7742C16.4865 20.6233 16.1554 20.4021 15.8766 20.1232C15.5977 19.8444 15.3765 19.5133 15.2256 19.149C15.0747 18.7846 14.997 18.3941 14.997 17.9998C14.997 17.6054 15.0747 17.2149 15.2256 16.8506C15.3765 16.4862 15.5977 16.1552 15.8766 15.8763C16.1554 15.5975 16.4865 15.3763 16.8508 15.2254C17.2152 15.0745 17.6057 14.9968 18 14.9968C18.7965 14.9968 19.5603 15.3132 20.1235 15.8763C20.6866 16.4395 21.003 17.2033 21.003 17.9998C21.003 18.7962 20.6866 19.5601 20.1235 20.1232C19.5603 20.6864 18.7965 21.0028 18 21.0028V21.0028ZM18 13.3738C16.7731 13.3738 15.5965 13.8612 14.7289 14.7287C13.8614 15.5963 13.374 16.7729 13.374 17.9998C13.374 19.2267 13.8614 20.4033 14.7289 21.2709C15.5965 22.1384 16.7731 22.6258 18 22.6258C19.2269 22.6258 20.4036 22.1384 21.2711 21.2709C22.1386 20.4033 22.626 19.2267 22.626 17.9998C22.626 16.7729 22.1386 15.5963 21.2711 14.7287C20.4036 13.8612 19.2269 13.3738 18 13.3738V13.3738ZM23.9718 13.2898C23.9718 13.5798 23.8566 13.8579 23.6515 14.063C23.4465 14.2681 23.1683 14.3833 22.8783 14.3833C22.5883 14.3833 22.3102 14.2681 22.1051 14.063C21.9 13.8579 21.7848 13.5798 21.7848 13.2898C21.7848 12.9998 21.9 12.7216 22.1051 12.5166C22.3102 12.3115 22.5883 12.1963 22.8783 12.1963C23.1683 12.1963 23.4465 12.3115 23.6515 12.5166C23.8566 12.7216 23.9718 12.9998 23.9718 13.2898" fill="white" fill-opacity="0.87"/>
</svg>
