<svg width="36" height="36" viewBox="0 0 36 36" fill="none" xmlns="http://www.w3.org/2000/svg">
<rect width="36" height="36" rx="18" fill="#D22630"/>
<path d="M23.2716 27H26.9984L27 20.4043C27 17.1664 26.3035 14.6775 22.5262 14.6775C21.8175 14.6511 21.1149 14.8178 20.4932 15.1598C19.8716 15.5018 19.3542 16.0063 18.9962 16.6196H18.9461V14.9765H15.3683V26.9996H19.0952V21.0519C19.0952 19.4834 19.3921 17.9644 21.3332 17.9644C23.2467 17.9644 23.2716 19.7592 23.2716 21.1534V27Z" fill="white" fill-opacity="0.87"/>
<path d="M9.96151 12.9682C10.3172 13.2062 10.7354 13.3331 11.1631 13.3331C11.4472 13.333 11.7284 13.2769 11.9908 13.168C12.2531 13.0591 12.4915 12.8994 12.6923 12.6982C12.8931 12.497 13.0524 12.2581 13.161 11.9953C13.2697 11.7324 13.3255 11.4507 13.3255 11.1661C13.3254 10.7376 13.1985 10.3188 12.9608 9.96255C12.7231 9.60631 12.3853 9.32868 11.99 9.16477C11.5948 9.00086 11.16 8.95803 10.7404 9.04171C10.3209 9.12538 9.93559 9.33179 9.63318 9.63484C9.33077 9.93789 9.12486 10.324 9.04148 10.7442C8.95811 11.1645 9.00101 11.6001 9.16478 11.996C9.32854 12.3918 9.60581 12.7302 9.96151 12.9682Z" fill="white" fill-opacity="0.87"/>
<path d="M9.29582 27H13.0266V14.9765H9.29582V27Z" fill="white" fill-opacity="0.87"/>
</svg>
