<svg width="36" height="36" viewBox="0 0 36 36" fill="none" xmlns="http://www.w3.org/2000/svg">
<rect width="36" height="36" rx="18" fill="#D22630"/>
<path d="M25.9525 13.9202C25.9647 14.0965 25.9647 14.2729 25.9647 14.4508C25.9647 19.8727 21.8371 26.1258 14.2897 26.1258V26.1225C12.0601 26.1258 9.8769 25.4872 8 24.283C8.32419 24.322 8.65001 24.3415 8.97664 24.3423C10.8243 24.3439 12.6191 23.724 14.0727 22.5824C12.3169 22.5491 10.7772 21.4043 10.2393 19.7329C10.8544 19.8516 11.4881 19.8272 12.0918 19.6623C10.1775 19.2755 8.80033 17.5936 8.80033 15.6403C8.80033 15.6224 8.80033 15.6054 8.80033 15.5883C9.37071 15.906 10.0093 16.0823 10.6626 16.1018C8.85964 14.8969 8.30388 12.4983 9.39265 10.623C11.4759 13.1865 14.5497 14.7449 17.8493 14.9099C17.5186 13.4847 17.9703 11.9913 19.0364 10.9895C20.689 9.43597 23.2882 9.51559 24.8418 11.1674C25.7607 10.9862 26.6415 10.649 27.4475 10.1713C27.1412 11.1211 26.5001 11.9279 25.6437 12.4406C26.457 12.3448 27.2517 12.127 28 11.7947C27.4491 12.6202 26.7552 13.3393 25.9525 13.9202Z" fill="white" fill-opacity="0.87"/>
</svg>
