<svg width="36" height="36" viewBox="0 0 36 36" fill="none" xmlns="http://www.w3.org/2000/svg">
<rect width="36" height="36" rx="18" fill="#D22630"/>
<path fill-rule="evenodd" clip-rule="evenodd" d="M25.792 11.4148C26.6521 11.6459 27.3325 12.3263 27.5635 13.1863C27.9872 14.7524 28 18.0002 28 18.0002C28 18.0002 28 21.2608 27.5764 22.8141C27.3453 23.6741 26.665 24.3545 25.8049 24.5856C24.2516 25.0092 18 25.0092 18 25.0092C18 25.0092 11.7484 25.0092 10.1951 24.5856C9.33504 24.3545 8.65469 23.6741 8.42362 22.8141C8 21.248 8 18.0002 8 18.0002C8 18.0002 8 14.7524 8.41078 13.1992C8.64185 12.3391 9.32221 11.6587 10.1823 11.4277C11.7356 11.004 17.9872 10.9912 17.9872 10.9912C17.9872 10.9912 24.2388 10.9912 25.792 11.4148ZM21.1836 18.0002L15.9974 21.004V14.9963L21.1836 18.0002Z" fill="white" fill-opacity="0.87"/>
</svg>
